<svg width="51" height="113" viewBox="0 0 51 113" fill="none" xmlns="http://www.w3.org/2000/svg">
<path opacity="0.8" d="M35.9445 84.9603C39.4498 93.0021 43.4091 98.6558 49.348 107.136C51.3276 109.963 48.4401 111.913 46.0066 111.474C41.1394 110.597 38.2519 112.546 33.3848 111.669C28.5177 110.791 25.6302 112.741 20.763 111.863C18.3295 111.424 18.7834 109.036 21.6709 107.087C24.5584 105.137 29.4255 106.015 34.2927 106.892L36.7262 107.331C34.2926 106.892 31.8591 106.454 29.8794 103.627C25.4662 100.361 18.6195 96.6569 14.2063 93.3914C5.83377 84.4721 0.348792 73.6034 0.184878 61.224C0.0209596 48.8446 7.61169 35.3932 14.2945 26.718C17.636 22.3804 23.8649 16.0934 29.6399 12.1945C32.5274 10.2451 35.4149 8.29566 38.3024 6.34622C41.1899 4.39678 44.0774 2.44735 46.9649 0.497907C49.3985 0.93661 51.832 1.37532 48.9445 3.32476C46.057 5.2742 43.1695 7.22364 42.7156 9.61178C39.8281 11.5612 36.9406 13.5107 34.0531 15.4601C28.2781 19.359 24.9367 23.6965 21.5952 28.0341C12.9328 33.8824 8.22954 45.3844 5.95989 57.3252C6.12381 69.7046 9.17521 80.1345 18.0016 86.6656C22.4148 89.9312 26.828 93.1967 31.2412 96.4623C33.6748 96.901 36.1084 97.3397 35.6545 99.7278C33.6748 96.901 29.7155 91.2473 27.7359 88.4204C28.6437 83.6442 33.9648 82.1334 35.9445 84.9603Z" fill="#2AA7FF"/>
</svg>
