<svg width="36" height="33" viewBox="0 0 36 33" fill="none" xmlns="http://www.w3.org/2000/svg">
<path d="M33.5006 28.3658C34.6281 26.9804 35.4018 25.3807 35.7646 23.6845C36.1275 21.9884 36.0702 20.2392 35.5971 18.5661C35.124 16.893 34.2471 15.3386 33.0311 14.0176C31.8151 12.6967 30.291 11.6429 28.5714 10.9341C28.1968 8.95856 27.336 7.08728 26.0543 5.46244C24.7726 3.83759 23.1037 2.50194 21.1745 1.55697C19.2453 0.611998 17.1065 0.0825675 14.9207 0.00890627C12.7348 -0.0647549 10.5594 0.319291 8.55975 1.13186C6.56008 1.94444 4.78875 3.16416 3.38036 4.69835C1.97198 6.23253 0.963583 8.04083 0.431806 9.98582C-0.0999717 11.9308 -0.141143 13.9613 0.311422 15.9231C0.763987 17.8849 1.69838 19.7263 3.0436 21.3074L0.542995 23.5832C0.29337 23.8152 0.124271 24.1096 0.0570349 24.4296C-0.010201 24.7495 0.0274388 25.0805 0.165205 25.3808C0.300166 25.682 0.529354 25.9398 0.823887 26.1218C1.11842 26.3037 1.46512 26.4017 1.82028 26.4033H12.0566C13.076 28.3734 14.6832 30.0386 16.6921 31.206C18.7011 32.3735 21.0297 32.9955 23.4083 33H34.2022C34.5574 32.9984 34.9041 32.9004 35.1986 32.7185C35.4932 32.5365 35.7224 32.2787 35.8573 31.9775C35.9951 31.6772 36.0327 31.3462 35.9655 31.0262C35.8983 30.7063 35.7292 30.4118 35.4795 30.1799L33.5006 28.3658ZM10.8153 21.4558C10.8177 22.0081 10.8659 22.5594 10.9592 23.105H6.15587L6.78552 22.5443C6.95413 22.3909 7.08797 22.2085 7.1793 22.0076C7.27063 21.8066 7.31766 21.5911 7.31766 21.3733C7.31766 21.1556 7.27063 20.9401 7.1793 20.7391C7.08797 20.5382 6.95413 20.3557 6.78552 20.2024C5.77729 19.2883 4.97797 18.1991 4.43432 16.9985C3.89067 15.7978 3.61359 14.5099 3.61928 13.21C3.61928 10.5856 4.7565 8.0688 6.78077 6.21312C8.80503 4.35744 11.5505 3.31494 14.4133 3.31494C16.6471 3.30263 18.8289 3.93236 20.6521 5.11561C22.4752 6.29885 23.8481 7.97611 24.5776 9.91162C24.1818 9.91162 23.804 9.91162 23.4083 9.91162C20.0684 9.91162 16.8653 11.1279 14.5037 13.2928C12.142 15.4578 10.8153 18.3941 10.8153 21.4558ZM29.7767 29.7017L29.8667 29.7841H23.4083C21.3274 29.7807 19.3122 29.1161 17.706 27.9034C16.0998 26.6907 15.0018 25.0051 14.5993 23.1336C14.1967 21.2621 14.5144 19.3205 15.4982 17.6397C16.482 15.9588 18.0711 14.6426 19.9948 13.9153C21.9184 13.188 24.0576 13.0946 26.048 13.651C28.0383 14.2074 29.7567 15.3792 30.9103 16.9667C32.064 18.5542 32.5815 20.4593 32.3748 22.3574C32.1681 24.2555 31.2499 26.0292 29.7767 27.3763C29.4378 27.6808 29.2438 28.0957 29.237 28.5308C29.238 28.7489 29.2862 28.9648 29.3789 29.1658C29.4715 29.3668 29.6067 29.5489 29.7767 29.7017Z" fill="black"/>
</svg>
