<svg width="44" height="45" viewBox="0 0 44 45" fill="none" xmlns="http://www.w3.org/2000/svg">
<g clip-path="url(#clip0_99_916)">
<path d="M21.9999 2.4998C33.3218 2.4998 42.4999 11.6778 42.4999 22.9996C42.4999 34.3218 33.3218 43.4998 21.9999 43.4998C10.6781 43.4998 1.49999 34.3218 1.49999 22.9996C1.49999 11.6778 10.6781 2.4998 21.9999 2.4998Z" fill="#163C86" stroke="#4A6AA7"/>
<path d="M25.045 20.94H22.975V19.575C22.975 19.345 23.04 19.175 23.17 19.065C23.27 18.985 23.395 18.945 23.545 18.945H25.015V16.695L22.99 16.68C22.3 16.68 21.73 16.84 21.28 17.16C20.91 17.42 20.635 17.78 20.455 18.24C20.315 18.61 20.245 19.01 20.245 19.44V20.94H18.955V23.25H20.245V29.805H22.975V23.25H24.805L25.045 20.94Z" fill="white"/>
</g>
<defs>
<clipPath id="clip0_99_916">
<rect width="44" height="45" fill="white"/>
</clipPath>
</defs>
</svg>
