<svg width="45" height="45" viewBox="0 0 45 45" fill="none" xmlns="http://www.w3.org/2000/svg">
<g clip-path="url(#clip0_99_913)">
<path fill-rule="evenodd" clip-rule="evenodd" d="M23 1.9998C34.598 1.9998 44 11.4017 44 22.9996C44 34.5979 34.598 43.9998 23 43.9998C11.4019 43.9998 1.99994 34.5979 1.99994 22.9996C1.99994 11.4017 11.4019 1.9998 23 1.9998Z" fill="#0088FF"/>
<path d="M29.015 24.195C29.065 23.865 29.09 23.55 29.09 23.25C29.09 22.15 28.815 21.125 28.265 20.175C27.725 19.255 26.995 18.525 26.075 17.985C25.125 17.435 24.1 17.16 23 17.16C22.7 17.16 22.385 17.185 22.055 17.235C21.445 16.865 20.8 16.68 20.12 16.68C19.45 16.68 18.835 16.845 18.275 17.175C17.715 17.505 17.27 17.955 16.94 18.525C16.61 19.085 16.445 19.7 16.445 20.37C16.445 21.07 16.625 21.71 16.985 22.29C16.935 22.64 16.91 22.96 16.91 23.25C16.91 24.35 17.185 25.375 17.735 26.325C18.275 27.245 19.005 27.975 19.925 28.515C20.875 29.065 21.9 29.34 23 29.34C23.3 29.34 23.615 29.315 23.945 29.265C24.535 29.625 25.18 29.805 25.88 29.805C26.55 29.805 27.165 29.64 27.725 29.31C28.285 28.98 28.73 28.535 29.06 27.975C29.39 27.405 29.555 26.79 29.555 26.13C29.565 25.46 29.385 24.815 29.015 24.195ZM25.895 26.025C25.625 26.405 25.245 26.695 24.755 26.895C24.265 27.095 23.68 27.195 23 27.195C22.18 27.195 21.51 27.055 20.99 26.775C20.62 26.565 20.315 26.29 20.075 25.95C19.835 25.6 19.715 25.265 19.715 24.945C19.715 24.755 19.785 24.59 19.925 24.45C20.075 24.31 20.265 24.24 20.495 24.24C20.675 24.24 20.83 24.29 20.96 24.39C21.09 24.52 21.195 24.68 21.275 24.87C21.385 25.11 21.5 25.31 21.62 25.47C21.74 25.63 21.9 25.76 22.1 25.86C22.31 25.96 22.595 26.01 22.955 26.01C23.445 26.01 23.84 25.905 24.14 25.695C24.44 25.485 24.59 25.23 24.59 24.93C24.59 24.69 24.505 24.49 24.335 24.33C24.175 24.17 23.97 24.055 23.72 23.985C23.58 23.935 23.315 23.865 22.925 23.775L22.67 23.715C22.09 23.595 21.595 23.45 21.185 23.28C20.775 23.1 20.455 22.86 20.225 22.56C19.995 22.26 19.88 21.895 19.88 21.465C19.88 21.025 20 20.645 20.24 20.325C20.49 19.995 20.85 19.74 21.32 19.56C21.8 19.38 22.355 19.29 22.985 19.29C23.495 19.29 23.93 19.35 24.29 19.47C24.66 19.59 24.965 19.75 25.205 19.95C25.455 20.14 25.635 20.34 25.745 20.55C25.865 20.76 25.925 20.965 25.925 21.165C25.925 21.365 25.855 21.54 25.715 21.69C25.575 21.84 25.39 21.915 25.16 21.915C24.97 21.915 24.82 21.87 24.71 21.78C24.62 21.7 24.51 21.555 24.38 21.345C24.24 21.055 24.065 20.835 23.855 20.685C23.665 20.525 23.335 20.445 22.865 20.445C22.445 20.445 22.105 20.535 21.845 20.715C21.595 20.885 21.47 21.08 21.47 21.3C21.47 21.43 21.51 21.56 21.59 21.69C21.68 21.79 21.8 21.88 21.95 21.96C22.13 22.04 22.29 22.1 22.43 22.14C22.67 22.21 22.93 22.275 23.21 22.335C23.75 22.455 24.17 22.57 24.47 22.68C24.86 22.81 25.18 22.955 25.43 23.115C25.71 23.305 25.92 23.53 26.06 23.79C26.21 24.05 26.285 24.375 26.285 24.765C26.285 25.225 26.155 25.645 25.895 26.025Z" fill="white"/>
</g>
<defs>
<clipPath id="clip0_99_913">
<rect width="45" height="45" fill="white"/>
</clipPath>
</defs>
</svg>
