<svg width="45" height="45" viewBox="0 0 45 45" fill="none" xmlns="http://www.w3.org/2000/svg">
<g clip-path="url(#clip0_99_910)">
<path d="M23 2.4998C34.3218 2.4998 43.4999 11.6778 43.4999 22.9996C43.4999 34.3218 34.3217 43.4998 23 43.4998C11.6781 43.4998 2.49998 34.3218 2.49998 22.9996C2.49998 11.6778 11.6781 2.4998 23 2.4998Z" fill="#163C86" stroke="#4A6AA7"/>
<path d="M29.57 20.17C29.1 20.38 28.58 20.525 28.01 20.605C28.29 20.445 28.53 20.235 28.73 19.975C28.94 19.715 29.095 19.425 29.195 19.105C28.685 19.425 28.115 19.645 27.485 19.765C27.245 19.495 26.95 19.285 26.6 19.135C26.26 18.985 25.9 18.91 25.52 18.91C25.03 18.91 24.58 19.035 24.17 19.285C23.76 19.525 23.435 19.85 23.195 20.26C22.955 20.67 22.835 21.12 22.835 21.61C22.835 21.85 22.855 22.055 22.895 22.225C21.795 22.165 20.76 21.885 19.79 21.385C18.84 20.895 18.025 20.235 17.345 19.405C17.105 19.835 16.985 20.285 16.985 20.755C16.985 21.215 17.09 21.645 17.3 22.045C17.52 22.435 17.815 22.755 18.185 23.005C17.745 22.995 17.34 22.88 16.97 22.66V22.705C16.97 23.355 17.17 23.925 17.57 24.415C17.98 24.905 18.5 25.215 19.13 25.345C18.91 25.405 18.67 25.435 18.41 25.435C18.23 25.435 18.065 25.42 17.915 25.39C18.085 25.93 18.4 26.375 18.86 26.725C19.32 27.065 19.84 27.24 20.42 27.25C19.96 27.62 19.44 27.905 18.86 28.105C18.29 28.305 17.695 28.405 17.075 28.405C16.945 28.405 16.745 28.395 16.475 28.375H16.43C17.68 29.175 19.06 29.575 20.57 29.575C21.76 29.575 22.855 29.345 23.855 28.885C24.775 28.455 25.575 27.855 26.255 27.085C26.885 26.365 27.375 25.545 27.725 24.625C28.055 23.735 28.22 22.835 28.22 21.925V21.565C28.75 21.185 29.2 20.72 29.57 20.17Z" fill="white"/>
</g>
<defs>
<clipPath id="clip0_99_910">
<rect width="45" height="45" fill="white"/>
</clipPath>
</defs>
</svg>
